<svg id="svg" version="1.1" xmlns="http://www.w3.org/2000/svg" xmlns:xlink="http://www.w3.org/1999/xlink" width="400" height="400" viewBox="0, 0, 400,400"><g id="svgg"><path id="path0" d="M46.500 43.865 C 46.225 43.976,46.000 44.202,46.000 44.367 C 46.000 45.295,106.508 105.239,107.132 104.931 C 108.698 104.156,269.989 104.541,272.800 105.326 C 283.738 108.382,292.302 116.885,295.434 127.800 C 296.271 130.717,296.801 164.907,296.040 166.900 C 294.925 169.820,300.206 169.597,232.100 169.599 C 192.502 169.599,171.200 169.737,171.200 169.993 C 171.200 170.209,184.679 183.889,201.153 200.393 L 231.106 230.400 262.053 230.401 C 296.418 230.403,294.970 230.291,296.010 233.026 C 296.634 234.667,296.525 292.740,295.896 294.000 C 295.118 295.557,355.705 356.022,356.629 354.612 C 357.138 353.835,357.198 338.214,357.098 232.560 L 356.982 111.400 355.889 106.503 C 348.310 72.562,321.782 47.992,288.410 44.005 C 284.958 43.592,47.516 43.455,46.500 43.865 M104.726 251.100 C 104.657 261.165,104.724 269.760,104.875 270.200 C 105.026 270.640,105.161 262.405,105.175 251.900 C 105.189 241.395,105.122 232.800,105.026 232.800 C 104.930 232.800,104.795 241.035,104.726 251.100 M44.940 262.000 C 45.085 287.058,45.195 289.612,46.355 294.800 C 46.576 295.790,46.870 297.140,47.009 297.800 C 47.147 298.460,47.402 299.360,47.575 299.800 C 47.748 300.240,48.109 301.320,48.377 302.200 C 49.664 306.415,53.581 315.686,54.377 316.400 C 54.764 316.747,56.040 318.970,56.271 319.700 C 56.393 320.085,56.652 320.400,56.847 320.400 C 57.041 320.400,57.200 320.670,57.200 321.000 C 57.200 321.330,57.380 321.600,57.600 321.600 C 57.820 321.600,58.000 321.870,58.000 322.200 C 58.000 322.530,58.180 322.800,58.400 322.800 C 58.620 322.800,58.800 322.993,58.800 323.229 C 58.800 323.464,59.025 323.886,59.300 324.165 C 59.575 324.445,60.250 325.270,60.800 325.999 C 63.886 330.091,70.709 336.914,74.801 340.000 C 75.530 340.550,76.323 341.180,76.563 341.400 C 76.804 341.620,77.495 342.055,78.100 342.368 C 78.705 342.680,79.200 343.085,79.200 343.268 C 79.200 343.450,79.470 343.600,79.800 343.600 C 80.130 343.600,80.400 343.759,80.400 343.953 C 80.400 344.148,80.715 344.407,81.100 344.529 C 81.791 344.748,84.012 346.009,84.400 346.403 C 85.134 347.148,95.037 351.349,98.600 352.427 C 99.480 352.693,100.560 353.052,101.000 353.225 C 101.440 353.398,102.340 353.653,103.000 353.791 C 103.660 353.930,105.010 354.224,106.000 354.445 C 106.990 354.667,108.880 355.040,110.200 355.275 C 112.616 355.705,143.559 356.121,157.501 355.910 L 164.802 355.800 104.795 295.800 L 44.788 235.800 44.940 262.000 M105.357 272.229 C 105.211 272.811,105.295 273.455,105.549 273.709 C 105.884 274.044,106.000 273.778,106.000 272.680 C 106.000 270.956,105.725 270.764,105.357 272.229 M106.000 275.376 C 106.000 275.913,106.180 276.464,106.400 276.600 C 106.620 276.736,106.800 277.197,106.800 277.624 C 106.800 278.051,106.980 278.400,107.200 278.400 C 107.420 278.400,107.600 278.760,107.600 279.200 C 107.600 279.640,107.780 280.000,108.000 280.000 C 108.220 280.000,108.400 280.190,108.400 280.422 C 108.400 281.779,115.132 289.969,116.267 289.991 C 116.523 289.996,116.793 290.145,116.867 290.323 C 117.076 290.831,120.397 292.937,122.600 293.959 C 123.700 294.470,124.913 295.048,125.295 295.244 C 126.220 295.718,127.200 295.696,127.200 295.200 C 127.200 294.980,126.750 294.800,126.200 294.800 C 125.650 294.800,125.200 294.620,125.200 294.400 C 125.200 294.180,124.851 294.000,124.424 294.000 C 123.997 294.000,123.536 293.820,123.400 293.600 C 123.264 293.380,122.803 293.200,122.376 293.200 C 121.949 293.200,121.600 293.020,121.600 292.800 C 121.600 292.580,121.330 292.400,121.000 292.400 C 120.670 292.400,120.400 292.220,120.400 292.000 C 120.400 291.780,120.130 291.600,119.800 291.600 C 119.470 291.600,119.200 291.420,119.200 291.200 C 119.200 290.980,119.022 290.800,118.805 290.800 C 117.814 290.800,110.800 283.786,110.800 282.795 C 110.800 282.578,110.620 282.400,110.400 282.400 C 110.180 282.400,110.000 282.130,110.000 281.800 C 110.000 281.470,109.854 281.200,109.675 281.200 C 109.496 281.200,109.102 280.570,108.800 279.800 C 108.498 279.030,108.104 278.400,107.925 278.400 C 107.746 278.400,107.600 277.950,107.600 277.400 C 107.600 276.850,107.420 276.400,107.200 276.400 C 106.980 276.400,106.800 275.950,106.800 275.400 C 106.800 274.850,106.620 274.400,106.400 274.400 C 106.180 274.400,106.000 274.839,106.000 275.376 M128.000 296.000 C 128.782 296.506,129.888 296.506,130.200 296.000 C 130.348 295.760,129.839 295.602,128.924 295.606 C 127.793 295.611,127.555 295.712,128.000 296.000 M132.000 296.750 C 132.550 296.904,161.620 296.924,196.600 296.794 L 260.200 296.557 195.600 296.513 C 160.070 296.489,131.450 296.595,132.000 296.750 " stroke="none" fill="#e5e5e5" fill-rule="evenodd"></path><path id="path1" d="M22.500 0.291 C 21.565 0.376,20.800 0.616,20.800 0.823 C 20.800 1.030,20.260 1.200,19.600 1.200 C 18.940 1.200,18.400 1.380,18.400 1.600 C 18.400 1.820,18.040 2.000,17.600 2.000 C 17.160 2.000,16.799 2.135,16.797 2.300 C 16.793 2.665,14.851 3.600,14.097 3.600 C 13.798 3.600,13.664 3.780,13.800 4.000 C 13.936 4.220,13.767 4.400,13.424 4.400 C 13.081 4.400,12.800 4.580,12.800 4.800 C 12.800 5.020,12.565 5.200,12.278 5.200 C 11.158 5.200,8.721 7.908,9.149 8.678 C 9.370 9.075,17.392 17.229,26.975 26.798 C 36.559 36.367,44.400 44.454,44.400 44.768 C 44.400 45.194,44.629 45.135,45.300 44.534 C 45.795 44.092,46.740 43.518,47.400 43.259 C 49.051 42.611,283.038 42.880,287.800 43.535 C 298.053 44.945,304.608 46.903,313.400 51.183 C 335.201 61.795,351.398 82.426,355.964 105.400 C 356.183 106.500,356.595 108.480,356.881 109.800 C 357.300 111.738,357.400 135.536,357.400 233.335 L 357.400 354.469 356.278 355.435 C 355.365 356.220,355.291 356.400,355.879 356.400 C 356.301 356.400,363.714 363.522,373.602 373.425 C 382.951 382.788,390.925 390.630,391.322 390.851 C 392.092 391.279,394.800 388.842,394.800 387.722 C 394.800 387.435,394.980 387.200,395.200 387.200 C 395.420 387.200,395.600 386.919,395.600 386.576 C 395.600 386.233,395.780 386.064,396.000 386.200 C 396.220 386.336,396.400 386.202,396.400 385.903 C 396.400 385.149,397.335 383.207,397.700 383.203 C 397.865 383.201,398.000 382.840,398.000 382.400 C 398.000 381.960,398.180 381.600,398.400 381.600 C 398.620 381.600,398.800 381.075,398.800 380.433 C 398.800 379.792,399.025 379.192,399.300 379.100 C 400.036 378.855,400.036 21.145,399.300 20.900 C 399.025 20.808,398.800 20.208,398.800 19.567 C 398.800 18.925,398.620 18.400,398.400 18.400 C 398.180 18.400,398.000 18.040,398.000 17.600 C 398.000 17.160,397.865 16.799,397.700 16.797 C 397.335 16.793,396.400 14.851,396.400 14.097 C 396.400 13.798,396.220 13.664,396.000 13.800 C 395.780 13.936,395.600 13.767,395.600 13.424 C 395.600 13.081,395.420 12.800,395.200 12.800 C 394.980 12.800,394.800 12.541,394.800 12.224 C 394.800 11.474,388.526 5.200,387.776 5.200 C 387.459 5.200,387.200 5.020,387.200 4.800 C 387.200 4.580,386.919 4.400,386.576 4.400 C 386.233 4.400,386.064 4.220,386.200 4.000 C 386.336 3.780,386.202 3.600,385.903 3.600 C 385.149 3.600,383.207 2.665,383.203 2.300 C 383.201 2.135,382.840 2.000,382.400 2.000 C 381.960 2.000,381.600 1.820,381.600 1.600 C 381.600 1.380,381.075 1.200,380.433 1.200 C 379.792 1.200,379.192 0.975,379.100 0.700 C 378.943 0.229,27.603 -0.174,22.500 0.291 M43.867 46.267 C 43.496 46.637,43.529 284.709,43.900 284.938 C 44.065 285.040,44.200 231.321,44.200 165.562 C 44.200 99.803,44.185 46.000,44.167 46.000 C 44.148 46.000,44.013 46.120,43.867 46.267 M106.657 105.852 L 105.600 106.909 105.600 136.985 L 105.600 167.061 106.632 168.030 L 107.664 169.000 200.867 169.000 L 294.069 169.000 295.046 167.864 L 296.023 166.728 295.860 148.664 C 295.702 131.176,295.513 127.440,294.758 126.974 C 294.561 126.852,294.400 126.401,294.400 125.971 C 294.400 125.541,294.241 124.877,294.047 124.495 C 293.852 124.113,293.452 123.260,293.157 122.600 C 290.672 117.033,283.776 110.138,278.200 107.644 C 277.540 107.348,276.687 106.948,276.305 106.753 C 275.923 106.559,275.259 106.400,274.829 106.400 C 274.399 106.400,273.948 106.239,273.826 106.042 C 273.289 105.174,265.831 105.077,188.957 104.939 L 107.715 104.794 106.657 105.852 M108.000 231.081 C 107.670 231.202,106.995 231.670,106.500 232.121 L 105.600 232.939 105.600 250.923 C 105.600 262.508,105.754 269.493,106.032 270.554 C 106.269 271.459,106.653 272.920,106.884 273.800 C 107.115 274.680,107.641 276.163,108.052 277.096 C 108.464 278.028,108.800 278.891,108.800 279.014 C 108.800 279.136,109.683 280.533,110.761 282.118 C 115.675 289.337,122.455 293.728,131.531 295.568 C 133.014 295.869,157.966 296.000,213.670 296.000 L 293.679 296.000 294.840 294.758 L 296.000 293.515 296.000 263.380 L 296.000 233.245 295.035 232.122 L 294.069 231.000 201.335 230.930 C 150.331 230.891,108.330 230.959,108.000 231.081 M44.406 289.433 C 44.409 290.075,44.596 290.870,44.821 291.200 C 45.114 291.630,45.154 291.346,44.962 290.200 C 44.630 288.216,44.398 287.896,44.406 289.433 M45.200 294.110 C 45.200 294.683,45.387 295.268,45.616 295.410 C 45.889 295.579,45.938 295.277,45.760 294.534 C 45.392 293.001,45.200 292.856,45.200 294.110 M48.400 304.985 C 48.400 306.133,53.911 317.546,55.266 319.205 L 56.079 320.200 55.274 318.800 C 53.410 315.558,50.866 310.388,49.808 307.692 C 48.809 305.144,48.400 304.359,48.400 304.985 M59.268 325.352 C 59.781 326.143,60.347 326.792,60.527 326.795 C 60.899 326.801,59.382 324.559,58.749 324.169 C 58.522 324.028,58.755 324.560,59.268 325.352 M62.311 329.000 C 63.199 330.280,70.861 337.877,72.200 338.805 C 72.640 339.110,71.610 338.054,69.912 336.458 C 68.214 334.861,65.622 332.260,64.152 330.678 C 62.682 329.095,61.854 328.340,62.311 329.000 M74.005 340.273 C 74.008 340.453,74.657 341.019,75.448 341.532 C 76.240 342.045,76.772 342.278,76.631 342.051 C 76.241 341.418,73.999 339.901,74.005 340.273 M81.600 345.555 C 82.807 346.527,91.794 351.027,93.200 351.364 L 94.200 351.604 93.200 351.131 C 87.584 348.473,84.654 347.023,82.800 345.984 C 81.590 345.305,81.050 345.112,81.600 345.555 M105.390 355.184 C 105.532 355.413,106.117 355.600,106.690 355.600 C 107.944 355.600,107.799 355.408,106.266 355.040 C 105.523 354.862,105.221 354.911,105.390 355.184 M109.600 356.000 C 109.930 356.213,110.740 356.373,111.400 356.354 C 112.576 356.321,112.580 356.314,111.600 356.000 C 110.070 355.510,108.842 355.510,109.600 356.000 M116.315 356.872 C 117.257 357.246,354.307 357.274,354.538 356.900 C 354.640 356.735,300.927 356.600,235.177 356.600 C 169.426 356.600,115.938 356.722,116.315 356.872 " stroke="none" fill="#3b53b3" fill-rule="evenodd"></path><path id="path2" d="M7.242 9.560 C 6.559 10.199,6.000 10.929,6.000 11.184 C 6.000 11.439,5.820 11.536,5.600 11.400 C 5.380 11.264,5.200 11.484,5.200 11.888 C 5.200 12.293,4.840 12.883,4.400 13.200 C 3.960 13.517,3.600 14.097,3.600 14.488 C 3.600 14.880,3.420 15.200,3.200 15.200 C 2.980 15.200,2.800 15.560,2.800 16.000 C 2.800 16.440,2.620 16.800,2.400 16.800 C 2.180 16.800,2.000 17.149,2.000 17.576 C 2.000 18.003,1.820 18.464,1.600 18.600 C 1.380 18.736,1.200 19.272,1.200 19.790 C 1.200 20.309,0.975 20.808,0.700 20.900 C -0.036 21.145,-0.036 378.855,0.700 379.100 C 0.975 379.192,1.200 379.691,1.200 380.210 C 1.200 380.728,1.380 381.264,1.600 381.400 C 1.820 381.536,2.000 381.997,2.000 382.424 C 2.000 382.851,2.180 383.200,2.400 383.200 C 2.620 383.200,2.800 383.560,2.800 384.000 C 2.800 384.440,2.980 384.800,3.200 384.800 C 3.420 384.800,3.600 385.120,3.600 385.512 C 3.600 385.903,3.960 386.483,4.400 386.800 C 4.840 387.117,5.200 387.707,5.200 388.112 C 5.200 388.516,5.380 388.736,5.600 388.600 C 5.820 388.464,6.000 388.543,6.000 388.776 C 6.000 389.329,10.671 394.000,11.224 394.000 C 11.457 394.000,11.536 394.180,11.400 394.400 C 11.264 394.620,11.484 394.800,11.888 394.800 C 12.293 394.800,12.883 395.160,13.200 395.600 C 13.517 396.040,14.097 396.400,14.488 396.400 C 14.880 396.400,15.200 396.580,15.200 396.800 C 15.200 397.020,15.560 397.200,16.000 397.200 C 16.440 397.200,16.800 397.380,16.800 397.600 C 16.800 397.820,17.149 398.000,17.576 398.000 C 18.003 398.000,18.464 398.180,18.600 398.400 C 18.736 398.620,19.272 398.800,19.790 398.800 C 20.309 398.800,20.808 399.025,20.900 399.300 C 21.145 400.036,378.855 400.036,379.100 399.300 C 379.192 399.025,379.691 398.800,380.210 398.800 C 380.728 398.800,381.264 398.620,381.400 398.400 C 381.536 398.180,381.997 398.000,382.424 398.000 C 382.851 398.000,383.200 397.820,383.200 397.600 C 383.200 397.380,383.560 397.200,384.000 397.200 C 384.440 397.200,384.800 397.020,384.800 396.800 C 384.800 396.580,385.120 396.400,385.512 396.400 C 385.903 396.400,386.483 396.040,386.800 395.600 C 387.117 395.160,387.707 394.800,388.112 394.800 C 388.516 394.800,388.736 394.620,388.600 394.400 C 388.464 394.180,388.561 394.000,388.816 394.000 C 389.173 394.000,391.600 391.774,391.600 391.447 C 391.600 391.072,356.631 356.564,356.146 356.461 C 355.788 356.384,355.114 356.522,354.647 356.768 C 353.463 357.392,117.615 357.091,113.000 356.460 C 111.240 356.219,108.900 355.909,107.800 355.772 C 106.700 355.635,105.629 355.360,105.420 355.161 C 105.211 354.963,104.684 354.800,104.248 354.800 C 103.813 354.800,102.904 354.625,102.228 354.410 C 85.639 349.148,77.774 344.541,67.017 333.783 C 56.294 323.060,51.347 314.620,46.380 298.572 C 46.171 297.896,46.000 296.987,46.000 296.552 C 46.000 296.116,45.837 295.589,45.639 295.380 C 45.245 294.966,44.880 292.558,44.550 288.200 C 44.433 286.660,44.172 285.229,43.969 285.020 C 43.413 284.447,43.477 46.683,44.034 46.126 C 44.272 45.888,44.407 45.312,44.334 44.846 C 44.237 44.233,9.058 8.400,8.553 8.400 C 8.515 8.400,7.926 8.922,7.242 9.560 " stroke="none" fill="#1c247b" fill-rule="evenodd"></path><path id="path3" d="M106.500 43.100 C 138.785 43.156,191.615 43.156,223.900 43.100 C 256.185 43.044,229.770 42.997,165.200 42.997 C 100.630 42.997,74.215 43.044,106.500 43.100 M44.829 44.965 C 44.317 45.582,44.175 84.968,44.658 92.657 L 44.912 96.714 74.656 126.456 L 104.400 156.198 104.400 131.425 C 104.400 107.340,104.422 106.628,105.187 105.814 L 105.974 104.977 75.998 75.011 C 59.511 58.530,45.953 45.125,45.870 45.223 C 45.786 45.320,45.517 45.760,45.271 46.200 C 44.827 46.995,44.824 46.995,44.812 46.180 C 44.805 45.729,45.016 45.144,45.280 44.880 C 45.544 44.616,45.656 44.400,45.529 44.400 C 45.402 44.400,45.087 44.654,44.829 44.965 M154.521 169.500 C 164.348 169.571,169.556 169.748,169.397 170.005 C 169.243 170.255,162.217 170.419,150.276 170.453 C 139.894 170.482,128.654 170.617,125.297 170.753 L 119.194 171.000 148.348 200.150 L 177.502 229.300 202.651 229.472 C 231.293 229.668,236.928 230.101,214.800 230.407 L 199.800 230.615 215.100 230.707 C 223.515 230.758,230.400 230.655,230.400 230.478 C 230.400 229.969,227.530 226.989,227.146 227.100 C 226.956 227.155,226.845 226.975,226.900 226.700 C 226.955 226.425,226.775 226.245,226.500 226.300 C 226.225 226.355,226.045 226.175,226.100 225.900 C 226.155 225.625,225.975 225.445,225.700 225.500 C 225.425 225.555,225.245 225.375,225.300 225.100 C 225.355 224.825,225.175 224.645,224.900 224.700 C 224.625 224.755,224.445 224.575,224.500 224.300 C 224.555 224.025,224.375 223.845,224.100 223.900 C 223.825 223.955,223.645 223.775,223.700 223.500 C 223.755 223.225,223.575 223.045,223.300 223.100 C 223.025 223.155,222.844 223.065,222.897 222.900 C 223.028 222.495,210.331 209.773,209.922 209.900 C 209.745 209.955,209.645 209.775,209.700 209.500 C 209.755 209.225,209.575 209.045,209.300 209.100 C 209.025 209.155,208.845 208.975,208.900 208.700 C 208.955 208.425,208.775 208.245,208.500 208.300 C 208.225 208.355,208.045 208.175,208.100 207.900 C 208.155 207.625,207.975 207.445,207.700 207.500 C 207.425 207.555,207.245 207.375,207.300 207.100 C 207.355 206.825,207.175 206.645,206.900 206.700 C 206.625 206.755,206.445 206.664,206.500 206.497 C 206.631 206.102,193.898 193.369,193.503 193.500 C 193.336 193.555,193.245 193.375,193.300 193.100 C 193.355 192.825,193.175 192.645,192.900 192.700 C 192.625 192.755,192.445 192.575,192.500 192.300 C 192.555 192.025,192.375 191.845,192.100 191.900 C 191.825 191.955,191.645 191.775,191.700 191.500 C 191.755 191.225,191.575 191.045,191.300 191.100 C 191.025 191.155,190.845 190.975,190.900 190.700 C 190.955 190.425,190.775 190.245,190.500 190.300 C 190.225 190.355,190.045 190.255,190.100 190.078 C 190.227 189.669,177.505 176.972,177.100 177.103 C 176.935 177.156,176.845 176.975,176.900 176.700 C 176.955 176.425,176.775 176.245,176.500 176.300 C 176.225 176.355,176.045 176.175,176.100 175.900 C 176.155 175.625,175.962 175.449,175.670 175.510 C 175.379 175.570,175.235 175.467,175.351 175.279 C 175.467 175.092,174.409 173.796,173.000 172.400 C 171.591 171.004,170.530 169.712,170.643 169.531 C 170.755 169.349,163.772 169.243,155.124 169.295 L 139.400 169.390 154.521 169.500 M294.800 296.404 C 293.835 297.155,292.954 297.183,269.600 297.191 L 245.401 297.200 274.876 326.675 L 304.351 356.150 329.227 356.375 C 348.838 356.552,354.324 356.493,355.151 356.094 C 355.728 355.816,355.920 355.661,355.579 355.751 C 355.199 355.851,354.774 355.504,354.486 354.857 C 354.226 354.276,340.916 340.711,324.907 324.713 L 295.800 295.627 294.800 296.404 M113.100 356.282 C 113.595 356.378,114.405 356.378,114.900 356.282 C 115.395 356.187,114.990 356.109,114.000 356.109 C 113.010 356.109,112.605 356.187,113.100 356.282 " stroke="none" fill="#979699" fill-rule="evenodd"></path><path id="path4" d="M106.332 43.500 C 138.965 43.556,192.245 43.556,224.732 43.500 C 257.220 43.444,230.520 43.397,165.400 43.397 C 100.280 43.397,73.700 43.444,106.332 43.500 M45.446 44.586 C 45.091 45.128,44.812 45.893,44.826 46.286 C 44.841 46.728,45.108 46.466,45.525 45.600 C 45.895 44.830,46.379 44.068,46.599 43.906 C 46.856 43.718,46.837 43.610,46.546 43.606 C 46.296 43.603,45.801 44.044,45.446 44.586 M286.433 43.745 C 286.525 43.824,287.680 43.987,289.000 44.107 C 290.449 44.238,291.083 44.192,290.600 43.990 C 289.830 43.669,286.093 43.449,286.433 43.745 M293.600 44.800 C 294.968 45.238,296.019 45.238,295.000 44.800 C 294.560 44.611,293.840 44.462,293.400 44.468 C 292.757 44.477,292.796 44.543,293.600 44.800 M52.600 51.600 C 56.115 55.120,59.081 58.000,59.191 58.000 C 59.301 58.000,56.515 55.120,53.000 51.600 C 49.485 48.080,46.519 45.200,46.409 45.200 C 46.299 45.200,49.085 48.080,52.600 51.600 M44.132 164.000 C 44.117 228.350,44.232 282.350,44.388 284.000 C 44.543 285.650,44.700 275.480,44.735 261.401 L 44.800 235.801 104.801 295.801 L 164.801 355.800 140.101 356.000 C 125.841 356.115,116.584 356.326,118.200 356.497 C 119.740 356.661,173.380 356.763,237.400 356.725 C 301.420 356.687,342.675 356.543,329.078 356.405 L 304.355 356.155 274.878 326.677 L 245.401 297.200 269.600 297.198 L 293.800 297.196 295.000 296.212 C 296.119 295.295,296.141 295.228,295.324 295.214 C 294.842 295.206,294.336 295.380,294.200 295.600 C 293.847 296.172,133.823 296.150,131.277 295.578 C 126.237 294.445,123.050 293.242,120.300 291.432 C 119.657 291.009,119.200 290.893,119.200 291.154 C 119.200 291.399,119.470 291.600,119.800 291.600 C 120.130 291.600,120.400 291.780,120.400 292.000 C 120.400 292.220,120.670 292.400,121.000 292.400 C 121.330 292.400,121.600 292.580,121.600 292.800 C 121.600 293.020,121.949 293.200,122.376 293.200 C 122.803 293.200,123.264 293.380,123.400 293.600 C 123.536 293.820,123.997 294.000,124.424 294.000 C 124.851 294.000,125.200 294.180,125.200 294.400 C 125.200 294.620,125.650 294.800,126.200 294.800 C 126.750 294.800,127.200 294.980,127.200 295.200 C 127.200 295.696,126.220 295.718,125.295 295.244 C 124.913 295.048,123.700 294.470,122.600 293.959 C 120.397 292.937,117.076 290.831,116.867 290.323 C 116.793 290.145,116.523 289.996,116.267 289.991 C 115.132 289.969,108.400 281.779,108.400 280.422 C 108.400 280.190,108.220 280.000,108.000 280.000 C 107.780 280.000,107.600 279.640,107.600 279.200 C 107.600 277.958,108.194 278.255,108.800 279.800 C 109.102 280.570,109.488 281.200,109.657 281.200 C 109.826 281.200,109.477 280.238,108.882 279.063 C 108.143 277.603,107.760 277.160,107.672 277.663 C 107.502 278.643,106.800 278.611,106.800 277.624 C 106.800 277.197,106.620 276.736,106.400 276.600 C 106.180 276.464,106.000 275.913,106.000 275.376 C 106.000 274.839,106.180 274.400,106.400 274.400 C 106.620 274.400,106.800 274.850,106.800 275.400 C 106.800 275.950,106.967 276.400,107.172 276.400 C 107.394 276.400,107.379 275.875,107.135 275.100 C 106.910 274.385,106.530 273.080,106.291 272.200 C 105.659 269.876,105.422 233.686,106.031 232.544 C 106.968 230.788,106.699 230.800,146.753 230.800 C 190.237 230.800,229.924 230.407,229.133 229.983 C 228.840 229.827,217.104 229.610,203.053 229.501 L 177.506 229.304 148.350 200.152 L 119.194 171.000 125.297 170.753 C 128.654 170.617,139.894 170.482,150.276 170.453 C 160.658 170.424,169.251 170.242,169.370 170.048 C 169.494 169.848,156.539 169.582,139.294 169.431 C 106.522 169.144,107.598 169.193,106.411 167.920 C 105.611 167.061,105.600 166.634,105.600 136.758 L 105.600 106.467 106.658 105.696 C 107.623 104.993,107.642 104.931,106.873 104.987 C 104.281 105.178,104.400 103.910,104.400 131.362 L 104.400 156.199 74.500 126.300 L 44.600 96.400 44.380 71.700 C 44.259 58.115,44.148 99.650,44.132 164.000 M319.574 54.724 C 320.109 55.159,321.099 55.819,321.774 56.191 L 323.000 56.867 322.026 56.076 C 321.491 55.641,320.501 54.981,319.826 54.609 L 318.600 53.933 319.574 54.724 M334.580 66.800 C 341.295 73.812,341.219 73.738,339.284 71.359 C 337.494 69.158,333.515 65.056,330.980 62.800 C 330.116 62.030,331.735 63.830,334.580 66.800 M75.400 74.400 C 76.706 75.720,77.865 76.800,77.975 76.800 C 78.085 76.800,77.106 75.720,75.800 74.400 C 74.494 73.080,73.335 72.000,73.225 72.000 C 73.115 72.000,74.094 73.080,75.400 74.400 M342.000 74.922 C 342.000 75.281,345.892 81.193,346.528 81.800 C 347.029 82.279,346.087 80.729,343.733 77.204 C 342.780 75.777,342.000 74.750,342.000 74.922 M91.800 90.800 C 93.106 92.120,94.265 93.200,94.375 93.200 C 94.485 93.200,93.506 92.120,92.200 90.800 C 90.894 89.480,89.735 88.400,89.625 88.400 C 89.515 88.400,90.494 89.480,91.800 90.800 M355.044 103.000 C 355.373 104.471,355.602 104.790,355.594 103.767 C 355.591 103.345,355.405 102.730,355.182 102.400 C 354.885 101.962,354.848 102.124,355.044 103.000 M147.900 104.700 C 169.955 104.757,206.045 104.757,228.100 104.700 C 250.155 104.643,232.110 104.596,188.000 104.596 C 143.890 104.596,125.845 104.643,147.900 104.700 M355.862 106.600 C 355.996 107.480,356.172 108.275,356.253 108.367 C 356.556 108.710,356.329 106.568,355.981 105.800 C 355.729 105.242,355.693 105.485,355.862 106.600 M285.478 112.272 C 286.401 113.112,287.811 114.520,288.611 115.400 L 290.066 117.000 288.653 115.183 C 287.875 114.183,286.465 112.775,285.520 112.054 L 283.800 110.743 285.478 112.272 M356.914 113.000 C 356.917 114.100,356.995 114.503,357.087 113.895 C 357.179 113.286,357.177 112.386,357.082 111.895 C 356.987 111.403,356.911 111.900,356.914 113.000 M357.397 235.600 C 357.397 300.610,357.444 327.205,357.500 294.700 C 357.556 262.195,357.556 209.005,357.500 176.500 C 357.444 143.995,357.397 170.590,357.397 235.600 M295.268 128.600 C 295.262 129.040,295.411 129.760,295.600 130.200 C 296.038 131.219,296.038 130.168,295.600 128.800 C 295.343 127.996,295.277 127.957,295.268 128.600 M296.183 149.800 C 296.183 159.040,296.236 162.763,296.300 158.073 C 296.364 153.383,296.364 145.823,296.299 141.273 C 296.235 136.723,296.183 140.560,296.183 149.800 M232.219 169.100 C 198.569 169.156,170.896 169.344,170.724 169.516 C 170.552 169.688,171.893 171.263,173.705 173.015 L 177.000 176.200 174.100 173.191 C 172.505 171.535,171.200 170.050,171.200 169.891 C 171.200 169.731,198.605 169.597,232.100 169.594 C 270.727 169.590,293.219 169.446,293.600 169.200 C 293.930 168.987,294.020 168.854,293.800 168.905 C 293.580 168.956,265.868 169.044,232.219 169.100 M229.613 229.011 C 229.673 230.844,228.535 230.778,262.301 230.893 C 279.694 230.952,293.716 230.868,293.462 230.706 C 293.208 230.544,279.015 230.409,261.923 230.406 L 230.845 230.400 230.223 229.511 C 229.880 229.022,229.606 228.797,229.613 229.011 M105.175 251.900 C 105.161 262.405,105.026 270.640,104.875 270.200 C 104.582 269.349,104.730 232.800,105.026 232.800 C 105.122 232.800,105.189 241.395,105.175 251.900 M296.190 263.400 C 296.190 279.900,296.239 286.708,296.300 278.530 C 296.360 270.351,296.360 256.851,296.300 248.530 C 296.239 240.208,296.190 246.900,296.190 263.400 M106.000 272.680 C 106.000 273.778,105.884 274.044,105.549 273.709 C 105.295 273.455,105.211 272.811,105.357 272.229 C 105.725 270.764,106.000 270.956,106.000 272.680 M112.001 284.582 C 113.242 286.201,118.368 290.990,118.581 290.729 C 118.639 290.658,117.047 289.070,115.044 287.200 C 113.040 285.330,111.671 284.152,112.001 284.582 M44.851 288.200 C 44.848 288.640,44.995 289.720,45.177 290.600 L 45.508 292.200 45.526 290.600 C 45.536 289.720,45.389 288.640,45.200 288.200 L 44.856 287.400 44.851 288.200 M45.838 294.200 C 46.170 296.184,46.402 296.504,46.394 294.967 C 46.391 294.325,46.204 293.530,45.979 293.200 C 45.686 292.770,45.646 293.054,45.838 294.200 M130.200 296.000 C 129.888 296.506,128.782 296.506,128.000 296.000 C 127.555 295.712,127.793 295.611,128.924 295.606 C 129.839 295.602,130.348 295.760,130.200 296.000 M46.658 297.600 C 46.975 299.325,47.202 299.651,47.194 298.367 C 47.191 297.835,47.011 297.130,46.794 296.800 C 46.518 296.378,46.477 296.615,46.658 297.600 M196.600 296.794 C 161.620 296.924,132.550 296.904,132.000 296.750 C 131.450 296.595,160.070 296.489,195.600 296.513 L 260.200 296.557 196.600 296.794 M47.200 299.768 C 47.200 300.175,49.280 306.200,49.628 306.800 C 50.231 307.840,50.033 307.008,49.000 304.160 C 48.450 302.644,48.000 301.098,48.000 300.725 C 48.000 300.352,47.820 299.936,47.600 299.800 C 47.380 299.664,47.200 299.650,47.200 299.768 M308.200 308.000 C 310.833 310.640,313.077 312.800,313.187 312.800 C 313.297 312.800,311.233 310.640,308.600 308.000 C 305.967 305.360,303.723 303.200,303.613 303.200 C 303.503 303.200,305.567 305.360,308.200 308.000 M325.000 324.800 C 327.412 327.220,329.476 329.200,329.586 329.200 C 329.696 329.200,327.812 327.220,325.400 324.800 C 322.988 322.380,320.924 320.400,320.814 320.400 C 320.704 320.400,322.588 322.380,325.000 324.800 M62.400 328.415 C 62.400 328.645,64.553 330.985,67.184 333.616 C 69.815 336.247,72.155 338.400,72.385 338.400 C 72.614 338.400,72.043 337.725,71.116 336.900 C 68.959 334.982,65.818 331.841,63.900 329.684 C 63.075 328.757,62.400 328.186,62.400 328.415 M345.400 345.200 C 350.016 349.820,353.883 353.600,353.993 353.600 C 354.103 353.600,350.416 349.820,345.800 345.200 C 341.184 340.580,337.317 336.800,337.207 336.800 C 337.097 336.800,340.784 340.580,345.400 345.200 M77.994 342.782 C 78.541 343.202,79.068 343.466,79.165 343.369 C 79.391 343.142,77.929 342.027,77.400 342.022 C 77.180 342.020,77.447 342.361,77.994 342.782 M93.173 350.843 C 95.809 352.012,100.874 353.659,101.109 353.424 C 101.222 353.311,101.064 353.146,100.757 353.057 C 97.452 352.094,96.276 351.704,94.308 350.917 C 91.524 349.803,90.709 349.750,93.173 350.843 M101.633 353.743 C 101.725 353.821,102.430 354.001,103.200 354.142 C 104.185 354.323,104.422 354.282,104.000 354.006 C 103.458 353.650,101.237 353.403,101.633 353.743 M354.253 354.400 C 354.495 354.730,354.774 355.261,354.873 355.580 C 354.989 355.952,355.148 356.007,355.317 355.734 C 355.462 355.499,355.183 354.968,354.697 354.553 C 354.211 354.139,354.012 354.070,354.253 354.400 M104.833 354.547 C 104.925 354.628,105.720 354.814,106.600 354.962 C 107.746 355.154,108.030 355.114,107.600 354.821 C 107.060 354.453,104.432 354.193,104.833 354.547 M110.200 355.623 C 111.080 355.805,112.160 355.952,112.600 355.949 L 113.400 355.944 112.600 355.600 C 112.160 355.411,111.080 355.264,110.200 355.274 L 108.600 355.292 110.200 355.623 " stroke="none" fill="#a5a4a4" fill-rule="evenodd"></path></g></svg>