<?xml version="1.0" ?><svg height="50px" version="1.1" viewBox="0 0 50 50" width="50px" xmlns="http://www.w3.org/2000/svg" xmlns:xlink="http://www.w3.org/1999/xlink"><title/><desc/><g fill="none" fill-rule="evenodd" id="rocketleague_squircle" stroke="none" stroke-width="1"><path d="M6,0 L44,0 C47.3137085,0 50,2.6862915 50,6 L50,44 C50,47.3137085 47.3137085,50 44,50 L6,50 C2.6862915,50 0,47.3137085 0,44 L0,6 C0,2.6862915 2.6862915,0 6,0 Z" fill="#004CA3" id="Background"/><g fill="#FFFFFF" fill-rule="nonzero" id="rocketleague" transform="translate(5.118754, 7.022447)"><path d="M18.4915529,13.4313222 C18.4915529,13.4313222 19.4943695,13.5072473 20.3429066,14.5701976 L19.8800682,14.6461227 L19.648649,14.5701976 C19.648649,14.5701976 18.9543913,13.7350223 18.4915529,13.4313222 L18.4915529,13.4313222 Z M16.9487582,18.1386738 L16.4859198,16.9997985 L16.3316403,16.9997985 L15.5602429,17.9108988 C16.1002211,18.3664489 16.9487582,18.1386738 16.9487582,18.1386738 Z M24.0456139,11.4572716 L23.6599153,11.6091216 L24.1227537,12.4442969 L25.6655484,12.9757721 C25.0484305,11.6850467 24.0456139,11.4572716 24.0456139,11.4572716 L24.0456139,11.4572716 Z M19.648649,13.0516971 C20.1114874,13.5831723 20.5743258,14.3424226 20.5743258,14.3424226 C21.3457232,13.5831723 22.9656576,13.2794722 25.0484305,13.3553972 C22.1171205,12.747997 19.648649,13.0516971 19.648649,13.0516971 L19.648649,13.0516971 Z M16.7944787,11.9128217 C16.7944787,11.9128217 17.6430158,11.9128217 18.8001119,12.1405968 C18.0287145,11.6091216 16.7944787,11.3054215 16.7944787,11.3054215 L16.7944787,11.9128217 L16.7944787,11.9128217 Z M23.8913345,16.0886981 L22.579959,17.2275735 L23.5827755,17.5312736 L24.5855921,16.4683233 L24.0456139,16.2405482 L23.8913345,16.0886981 L23.8913345,16.0886981 Z M15.1745442,10.0906211 C15.1745442,10.0906211 15.7145224,10.3943212 15.7916621,10.3943212 C15.8688019,10.3943212 16.9487582,10.7739463 17.4115966,10.9257964 C17.7972953,11.0776464 18.0287145,10.9257964 18.1058542,10.9257964 C18.182994,10.9257964 19.4943695,10.1665461 19.4943695,10.1665461 C18.3372734,9.71099598 17.2573171,9.40729588 17.2573171,9.40729588 C17.1801774,9.40729588 15.1745442,10.0906211 15.1745442,10.0906211 L15.1745442,10.0906211 Z M23.0427974,10.7739463 C22.9656576,10.6220963 22.8113782,10.6220963 21.8857013,10.4702462 C21.0371642,10.3943212 20.2657669,10.3183962 20.1114874,10.3183962 C19.9572079,10.3183962 19.8800682,10.3943212 19.8800682,10.3943212 C19.8800682,10.3943212 19.4172298,10.6980213 19.0315311,10.9257964 C18.6458324,11.1535715 18.5686927,11.2294965 18.4915529,11.3813465 C18.4144132,11.4572716 18.6458324,11.7609717 18.6458324,11.7609717 L19.2629503,12.5202219 C19.34009,12.5202219 19.5715092,12.672072 19.5715092,12.672072 C19.5715092,12.672072 20.805745,12.596147 21.5771424,12.5202219 L23.5827755,12.5202219 C23.6599153,12.5202219 23.5827755,12.2165218 23.4284961,11.8368967 C23.2742166,11.5331966 23.0427974,10.7739463 23.0427974,10.7739463 L23.0427974,10.7739463 Z M15.7145224,11.6091216 C15.7145224,11.6091216 15.7916621,11.6091216 15.9459416,11.6850467 C16.1002211,11.6850467 16.1773608,11.5331966 16.1773608,11.3813465 C16.1773608,11.1535715 15.9459416,11.0776464 15.9459416,11.0776464 L15.7916621,11.0776464 L15.5602429,11.1535715 L15.4831032,11.6850467 L15.5602429,11.6850467 L15.7145224,11.6091216 C15.6373827,11.4572716 15.6373827,11.3813465 15.6373827,11.2294965 C15.6373827,11.1535715 15.7916621,11.0017214 15.8688019,11.0017214 C15.8688019,11.0017214 16.0230814,11.0017214 15.9459416,11.3054215 C15.9459416,11.6091216 15.7145224,11.6091216 15.7145224,11.6091216 L15.7145224,11.6091216 Z M28.7511379,17.6071987 L28.13402,18.4423739 L28.13402,18.518299 L28.9825571,18.518299 C29.1368366,17.9868238 28.7511379,17.6071987 28.7511379,17.6071987 Z M13.3231906,13.6590973 L13.1689111,13.6590973 L12.7832124,13.5831723 C12.3975137,13.5072473 12.5517932,12.823922 12.5517932,12.823922 L12.0889548,12.9757721 C11.9346753,12.672072 11.2404177,11.8368967 11.2404177,11.8368967 L11.0861382,12.4442969 C11.1632779,12.5202219 11.5489766,13.1276221 11.6261164,13.2794722 L11.3946972,13.5072473 C11.3946972,13.5072473 11.3175574,13.6590973 11.3175574,13.7350223 C11.3175574,13.8109474 11.2404177,13.8868724 11.2404177,13.8868724 L10.9318587,14.0387225 L10.854719,14.0387225 L9.77476269,13.2035472 L9.77476269,13.8109474 L9.85190243,13.8109474 C9.92904216,13.9627974 10.0833216,14.2664975 10.4690203,14.4183476 C10.7775793,14.5701976 11.1632779,14.5701976 11.3175574,14.4942726 C11.4718369,14.5701976 11.5489766,14.5701976 11.6261164,14.6461227 C11.9346753,14.7979727 12.0118151,14.7220477 12.0118151,14.7220477 L12.4746535,14.5701976 L12.5517932,14.5701976 L12.6289329,14.4942726 L12.7832124,14.1905725 C12.7832124,14.1905725 13.5546098,14.2664975 13.8631687,14.2664975 C14.1717277,13.8109474 15.1745442,13.1276221 15.8688019,13.0516971 C16.5630595,13.0516971 17.7201556,13.2035472 18.6458324,14.1146475 C19.4943695,15.0257478 19.2629503,16.2405482 19.2629503,16.2405482 L20.9600245,16.7720234 L20.1886271,16.2405482 C19.5715092,14.7220477 18.1058542,13.3553972 18.1058542,13.3553972 C18.1058542,13.3553972 17.7201556,13.2794722 17.4887363,13.2794722 C17.2573171,13.2035472 17.1030377,13.0516971 17.1030377,13.0516971 C17.1030377,13.0516971 17.0258979,12.9757721 16.8716185,12.747997 L16.717339,12.4442969 C16.717339,12.4442969 16.5630595,12.2924469 16.3316403,12.1405968 C16.1002211,11.9887468 15.251684,11.9128217 14.7888456,11.8368967 C14.3260071,11.7609717 14.3260071,11.8368967 14.3260071,11.8368967 C15.6373827,12.1405968 16.0230814,12.2165218 16.1002211,12.2924469 C16.1002211,12.2924469 16.1773608,12.4442969 16.2545006,12.5202219 C15.1745442,12.2924469 14.1717277,12.4442969 13.9403085,12.5202219 C14.0945879,12.747997 14.0945879,13.0516971 13.9403085,13.2794722 C13.786029,13.4313222 13.3231906,13.6590973 13.3231906,13.6590973 L13.3231906,13.6590973 Z M27.9797405,19.1256992 L28.2111597,20.1127245 C28.2111597,20.1127245 28.4425789,19.8849494 28.6739981,19.5812493 C28.9054174,19.2775492 28.9825571,18.9738491 28.9825571,18.9738491 L28.0568802,19.0497742 L27.9797405,19.1256992 Z M9.38906401,12.2165218 L9.31192427,13.0516971 L9.77476269,13.0516971 L9.85190243,12.5202219 L9.85190243,12.823922 L9.92904216,12.823922 L9.92904216,12.3683719 L9.85190243,12.3683719 L9.85190243,12.0646718 L10.5461601,12.4442969 L10.6232998,12.596147 L10.7775793,12.747997 L10.9318587,12.747997 L11.0089985,12.672072 L11.0089985,12.596147 C10.5461601,12.596147 10.5461601,12.3683719 10.5461601,12.3683719 C10.5461601,12.3683719 10.6232998,11.8368967 10.7004395,11.6850467 C10.7775793,11.5331966 11.0861382,11.6091216 11.0861382,11.6091216 L11.0089985,11.5331966 L10.854719,11.5331966 C10.7004395,11.4572716 10.2376011,11.1535715 10.0833216,11.0776464 L10.0833216,11.0017214 L10.1604614,10.9257964 L10.1604614,10.6220963 L10.2376011,10.6220963 C10.2376011,10.5461713 10.3147408,10.5461713 10.3147408,10.4702462 C10.4690203,10.4702462 11.6261164,10.2424712 11.6261164,10.2424712 L10.5461601,10.0146961 L10.5461601,9.93877106 C10.2376011,9.86284603 10.0061819,9.78692101 9.85190243,9.71099598 C9.46620375,10.1665461 9.31192427,10.7739463 9.31192427,10.7739463 C9.31192427,10.7739463 9.23478454,11.8368967 9.23478454,11.9887468 C9.1576448,12.1405968 9.38906401,12.2165218 9.38906401,12.2165218 L9.38906401,12.2165218 Z M27.5169021,18.2145989 L27.6711816,18.4423739 L27.7483213,18.3664489 L28.3654392,17.6071987 L28.3654392,17.5312736 C28.0568802,17.5312736 27.5169021,18.2145989 27.5169021,18.2145989 L27.5169021,18.2145989 Z M25.6655484,16.8479484 L25.20271,16.6960984 L24.1227537,17.9108988 L24.8941511,18.1386738 C25.0484305,17.5312736 25.6655484,16.8479484 25.6655484,16.8479484 L25.6655484,16.8479484 Z M27.2854829,18.594224 C26.8997842,19.3534743 26.9769239,19.8849494 26.9769239,19.8849494 L27.3626226,19.0497742 L27.3626226,18.8979241 C27.4397624,18.8979241 27.3626226,18.7460741 27.2854829,18.594224 Z M26.8997842,13.6590973 C26.8997842,13.6590973 26.7455047,13.9627974 26.668365,14.0387225 C26.5912253,14.1146475 26.0512471,14.1905725 25.7426882,14.2664975 C25.4341292,14.4183476 24.8941511,14.6461227 24.7398716,14.7979727 C24.6627318,14.8738977 24.6627318,15.1016728 24.6627318,15.1775978 C24.6627318,15.1775978 24.8170113,15.2535229 24.8941511,15.2535229 L24.1998934,15.8609231 L24.3541729,16.0127731 L26.0512471,16.5442483 C26.4369458,16.2405482 26.9769239,16.1646232 26.9769239,16.1646232 C26.668365,16.0127731 25.3569895,15.4812979 24.9712908,15.3294479 C24.9712908,15.3294479 24.7398716,15.2535229 24.7398716,15.1775978 L24.7398716,14.9498228 C24.7398716,14.9498228 25.7426882,14.1905725 27.2854829,14.1905725 L27.5169021,13.7350223 L26.8997842,13.6590973 L26.8997842,13.6590973 Z M27.9026008,20.3404996 L27.5940418,19.4293993 L27.5169021,19.4293993 L27.0540637,20.2645746 L27.1312034,20.3404996 C27.5169021,20.4923496 27.9026008,20.3404996 27.9026008,20.3404996 Z M16.2545006,11.6850467 L16.4859198,11.7609717 C16.4859198,11.7609717 16.6401992,11.7609717 16.6401992,11.6091216 L16.6401992,11.3054215 L16.40878,11.1535715 L16.1002211,11.0776464 C16.1773608,11.1535715 16.1773608,11.2294965 16.1773608,11.2294965 L16.2545006,11.2294965 C16.2545006,11.1535715 16.3316403,11.1535715 16.3316403,11.2294965 C16.3316403,11.2294965 16.4859198,11.3054215 16.40878,11.5331966 C16.4859198,11.6091216 16.3316403,11.6850467 16.2545006,11.6850467 L16.2545006,11.6850467 Z M15.5602429,15.8609231 C15.0202648,16.8479484 15.4059635,17.5312736 15.4059635,17.5312736 L16.1002211,16.5442483 L16.1002211,16.3923983 L15.5602429,15.8609231 Z M10.5461601,10.0146961 L11.4718369,10.2424712 C11.5489766,10.2424712 12.0889548,10.1665461 12.0889548,10.1665461 L10.6232998,9.78692101 L10.5461601,10.0146961 L10.5461601,10.0146961 Z M11.0861382,9.78692101 C12.320374,9.93877106 12.5517932,10.1665461 12.5517932,10.1665461 C12.5517932,10.1665461 13.0146316,10.0906211 13.2460508,10.0906211 C12.8603522,9.78692101 11.1632779,9.25544583 11.1632779,9.25544583 C11.1632779,9.25544583 11.0861382,9.4832209 11.0861382,9.78692101 L11.0861382,9.78692101 Z M12.9374919,12.1405968 C12.7060727,12.2924469 12.4746535,12.747997 12.5517932,13.1276221 C12.6289329,13.5072473 12.7060727,13.5072473 12.9374919,13.5072473 C12.5517932,13.3553972 12.6289329,12.747997 12.9374919,12.3683719 C13.1689111,12.0646718 13.4003303,12.2924469 13.4003303,12.2924469 C13.4003303,12.2924469 13.1689111,11.9887468 12.9374919,12.1405968 L12.9374919,12.1405968 Z M7.4605706,23.3775006 C6.45775402,23.3775006 5.30065797,23.7571258 5.9949156,24.8200761 C11.7032561,34.4625544 17.7201556,36.7403052 20.2657669,37.9551056 C21.4228629,37.4236304 23.2742166,36.5884551 25.5112689,35.0699546 C26.8226445,34.2347793 26.668365,32.9440539 26.359806,32.1088786 C24.7398716,28.1607772 15.8688019,23.6812007 7.4605706,23.3775006 L7.4605706,23.3775006 Z M39.6278407,5.38326951 C37.3136486,3.78884397 31.6053081,0.90369299 20.2657669,0.90369299 C16.3316403,0.90369299 13.0146316,1.28331812 10.3918806,1.8147933 C11.0089985,2.80181863 11.3175574,3.94069402 11.3175574,5.15549443 C11.3175574,6.825845 10.7004395,8.34434552 9.69762295,9.4832209 C9.92904216,9.55914593 10.2376011,9.63507096 10.6232998,9.71099598 L10.7775793,9.33137085 C10.7775793,9.33137085 10.9318587,9.33137085 11.0089985,9.40729588 C11.0089985,9.02767075 11.2404177,9.02767075 11.2404177,9.02767075 C11.2404177,9.02767075 11.2404177,8.95174572 11.3175574,8.95174572 C11.7032561,9.02767075 12.7832124,9.55914593 13.2460508,9.78692101 C13.7088893,10.0146961 13.7088893,10.0906211 13.7088893,10.0906211 C13.7088893,10.0906211 14.7888456,10.0906211 15.0974045,10.0146961 C15.4059635,10.0146961 15.9459416,9.78692101 16.717339,9.55914593 C17.4887363,9.33137085 17.6430158,9.25544583 17.7972953,9.25544583 C17.9515748,9.25544583 19.34009,9.33137085 20.5743258,9.4832209 C21.8085616,9.63507096 22.9656576,10.0906211 23.1970768,10.2424712 L23.5827755,10.3183962 L23.6599153,10.0906211 L23.0427974,9.86284603 C23.0427974,9.86284603 23.1199371,9.4832209 23.1199371,9.40729588 C23.1199371,9.33137085 23.1970768,9.25544583 23.2742166,9.25544583 C23.3513563,9.25544583 24.0456139,9.40729588 24.2770332,9.4832209 C24.5084524,9.55914593 25.2798497,10.0906211 25.3569895,10.0906211 C25.4341292,10.0906211 25.4341292,10.1665461 25.4341292,10.1665461 C25.4341292,10.3183962 25.2798497,10.6220963 25.2798497,10.6220963 L25.0484305,10.5461713 L25.2798497,10.6220963 C25.2798497,10.6220963 25.5112689,10.6980213 25.5884087,10.7739463 C25.6655484,10.8498714 25.8969676,11.0017214 26.1283868,11.2294965 C26.359806,11.3813465 26.2826663,11.6091216 26.2826663,11.6091216 L26.8226445,12.1405968 L26.8226445,12.3683719 L28.13402,13.6590973 L28.13402,13.7350223 L27.5169021,14.1146475 C27.5169021,14.1146475 28.3654392,14.0387225 28.9825571,14.3424226 C29.599675,14.6461227 29.6768147,14.7979727 29.6768147,14.9498228 C29.5225352,15.0257478 29.291116,15.1016728 29.291116,15.1016728 C28.8282776,15.2535229 27.6711816,16.0127731 27.6711816,16.0127731 L27.6711816,16.0886981 L28.2882995,16.2405482 C28.9825571,15.633148 30.2167929,15.4053729 31.1424697,15.557223 C34.3051989,16.1646232 36.4651115,18.2145989 36.92795,19.9608745 C36.92795,20.0367995 37.0050897,20.1886495 37.0050897,20.2645746 C40.1678189,12.9757721 39.8592599,7.73694531 39.6278407,5.38326951 L39.6278407,5.38326951 Z M28.5197187,16.4683233 C28.5968584,16.5442483 28.6739981,16.5442483 28.7511379,16.6201733 C29.2139763,16.9238734 29.4453955,17.0757235 29.5225352,17.7590487 C29.599675,18.2905239 29.4453955,19.0497742 29.0596968,19.7330994 C31.2196094,21.1756749 34.2280592,20.0367995 35.3851552,21.1756749 C35.153736,18.2905239 30.8339108,15.4053729 28.5197187,16.4683233 Z M10.7775793,12.747997 L10.6232998,12.823922 L10.6232998,13.4313222 L10.7775793,13.3553972 L10.7775793,12.747997 Z M33.0709631,22.1627002 C31.4510287,22.1627002 29.8310942,21.631225 28.6739981,20.2645746 L28.6739981,20.3404996 C27.9797405,21.2515999 27.2083431,21.2515999 26.8997842,21.2515999 C26.5912253,21.2515999 25.5884087,20.7960497 25.20271,20.3404996 C24.8170113,19.8849494 24.8170113,19.0497742 24.8170113,19.0497742 L23.2742166,18.518299 L21.3457232,17.4553486 L21.0371642,17.3794236 C20.4200463,17.6831237 19.648649,17.4553486 18.9543913,16.9238734 C18.8772516,17.2275735 18.4915529,17.9868238 18.0287145,18.3664489 C17.5658761,18.7460741 16.6401992,19.2775492 15.9459416,19.2775492 C15.251684,19.2775492 13.7088893,18.518299 13.2460508,17.4553486 C12.7832124,16.3923983 13.2460508,15.2535229 13.2460508,15.2535229 L12.4746535,15.1016728 L12.1660945,14.7220477 C12.1660945,14.7220477 11.2404177,15.4812979 10.2376011,15.1775978 C9.23478454,14.8738977 8.38624743,14.0387225 8.15482822,13.2794722 C8.00054875,12.5202219 8.23196796,11.8368967 8.3091077,11.7609717 C8.15482822,11.2294965 8.15482822,10.9257964 8.15482822,10.9257964 L8.07768849,10.9257964 L8.07768849,10.6980213 C7.07487191,11.3813465 5.91777586,11.6850467 4.68354008,11.6850467 C3.29502482,11.6850467 1.9836493,11.2294965 0.90369299,10.5461713 C1.05797246,12.2165218 1.52081088,14.1905725 2.13792877,16.3923983 C2.98646588,19.4293993 5.76349639,20.4164246 9.92904216,21.0997498 C19.1086708,22.5423253 27.9026008,29.4515027 27.2854829,33.7033041 C29.599675,31.8051785 32.0681465,28.9959525 34.5366181,24.8200761 C35.5394347,23.2256506 34.6137579,22.1627002 33.0709631,22.1627002 L33.0709631,22.1627002 Z M8.54052691,11.6850467 L8.46338717,12.5202219 L9.00336533,12.5202219 L9.00336533,12.4442969 L8.92622559,12.4442969 L8.92622559,12.3683719 L8.84908585,12.3683719 L8.92622559,12.2165218 L9.00336533,11.8368967 L8.92622559,11.7609717 L8.92622559,11.6091216 L9.00336533,11.5331966 L9.08050506,10.6220963 L8.69480638,10.3943212 C8.84908585,9.78692101 9.23478454,9.25544583 9.23478454,9.25544583 L9.00336533,9.25544583 C8.61766664,9.71099598 8.46338717,10.3183962 8.46338717,10.3183962 C8.46338717,10.3183962 8.38624743,11.3054215 8.38624743,11.4572716 C8.38624743,11.6850467 8.54052691,11.6850467 8.54052691,11.6850467 L8.54052691,11.6850467 Z M17.0258979,16.7720234 L17.4115966,17.9868238 C18.182994,17.4553486 18.3372734,16.6201733 18.3372734,16.6201733 L17.1030377,16.6960984 L17.0258979,16.7720234 L17.0258979,16.7720234 Z M17.7201556,14.8738977 L17.1030377,15.9368481 L17.1801774,16.0127731 L18.4144132,16.0886981 C18.4144132,15.2535229 17.7201556,14.8738977 17.7201556,14.8738977 L17.7201556,14.8738977 Z M10.0061819,12.5202219 L9.92904216,12.9757721 L10.0061819,12.9757721 L10.0061819,12.5202219 Z M15.8688019,15.4053729 L16.4859198,15.8609231 L16.6401992,15.784998 L17.3344569,14.7220477 C16.4859198,14.6461227 15.8688019,15.4053729 15.8688019,15.4053729 Z M10.1604614,12.596147 L10.0833216,12.5202219 L10.0833216,13.0516971 L10.1604614,13.0516971 L10.1604614,12.596147 Z M10.3918806,12.747997 L10.3147408,13.2794722 L10.3918806,13.2794722 L10.3918806,12.747997 Z M10.5461601,12.823922 L10.4690203,13.3553972 L10.5461601,13.3553972 L10.5461601,12.823922 Z M10.2376011,12.672072 L10.2376011,13.2035472 L10.1604614,13.2035472 L10.2376011,12.672072 Z M25.5638069,10.2117308 L25.6138781,10.2117308 L26.1412791,10.4470481 L26.4218368,10.4470481 C27.2510268,10.7597088 27.6805053,10.9233774 27.7102725,10.9380539 C27.7400397,10.9527304 27.8179389,11.0324818 27.94397,11.1773082 L29.0989143,11.6910511 L29.057681,11.8492176 L29.0368419,12.0038443 C28.4942394,11.7419192 28.2160501,11.6219128 28.2022739,11.6438251 C28.1884977,11.6657375 28.1737095,11.7342017 28.1579092,11.8492176 L27.329175,12.8022074 L27.3054428,12.9228098 L27.2415901,12.9228098 L26.8166205,12.5273937 L26.8166205,12.406105 L27.215855,12.3683604 L27.94397,11.6438251 C27.9766302,11.5794244 27.9884354,11.5379294 27.9793855,11.51934 C27.9658106,11.4914558 27.4220849,11.2648614 27.370138,11.2183217 C27.3355067,11.1872952 27.2926574,11.130925 27.2415901,11.0492111 C26.621364,10.8093066 26.2900038,10.6812938 26.2475095,10.6651725 C26.2050152,10.6490513 26.123124,10.6414662 26.0018359,10.6424174 C25.9740231,10.6894206 25.9580237,10.7171242 25.9538379,10.7255279 C25.949652,10.7339317 25.8825995,10.8182943 25.7526804,10.9786159 L25.6138781,10.9380539 C25.5869615,10.883899 25.5869615,10.8559788 25.6138781,10.8542932 C25.6407947,10.8526077 25.7104811,10.7611536 25.8229374,10.579931 L25.4841423,10.4470481 L25.5638069,10.2117308 Z M29.2519427,11.6577374 C30.3041941,11.6609851 30.8649008,11.6609851 30.9340629,11.6577374 C31.037806,11.652866 31.8512773,11.8313777 31.8555203,11.8489034 C31.858349,11.8605873 31.8732964,11.8918203 31.9003625,11.9426025 L31.0807283,12.5613326 C30.8519424,12.5522367 30.6903616,12.5177497 30.5959858,12.4578715 C30.4544221,12.3680544 29.9634379,12.22703 29.8422523,12.1852802 C29.7614619,12.157447 29.5450549,12.1127795 29.1930314,12.0512775 C29.1880343,11.899007 29.1880343,11.8080036 29.1930314,11.7782675 C29.1980286,11.7485315 29.2176657,11.7083548 29.2519427,11.6577374 Z M4.97031144,9.94062289 C2.22528423,9.94062289 1.9095836e-14,7.71533866 1.9095836e-14,4.97031144 C1.9095836e-14,2.22528423 2.22528423,1.88737914e-14 4.97031144,1.88737914e-14 C7.71533866,1.88737914e-14 9.94062289,2.22528423 9.94062289,4.97031144 C9.94062289,7.71533866 7.71533866,9.94062289 4.97031144,9.94062289 Z" id="Shape"/></g></g></svg>