<?xml version="1.0" standalone="no"?>
<!DOCTYPE svg PUBLIC "-//W3C//DTD SVG 20010904//EN"
 "http://www.w3.org/TR/2001/REC-SVG-20010904/DTD/svg10.dtd">
<svg version="1.0" xmlns="http://www.w3.org/2000/svg"
 width="512.000000pt" height="512.000000pt" viewBox="0 0 512.000000 512.000000"
 preserveAspectRatio="xMidYMid meet">

<g transform="translate(0.000000,512.000000) scale(0.100000,-0.100000)"
fill="#000000" stroke="none">
<path d="M307 5109 c-94 -22 -192 -93 -245 -177 -67 -104 -62 73 -62 -2373 0
-2183 0 -2218 20 -2280 37 -119 140 -222 259 -259 62 -20 97 -20 2280 -20
1996 0 2223 2 2272 16 112 33 199 109 253 223 l31 66 0 2255 0 2255 -32 67
c-44 93 -100 151 -191 196 l-76 37 -2235 2 c-1279 0 -2252 -3 -2274 -8z m3508
-572 c185 -50 336 -137 466 -266 129 -130 216 -281 266 -466 l28 -100 3 -1545
c1 -850 0 -1554 -2 -1566 -3 -11 -17 -26 -31 -32 -34 -16 -2944 -17 -3080 -2
-345 39 -643 247 -795 554 -57 116 -85 213 -100 341 -15 134 -14 3049 1 3078
7 12 17 25 23 30 6 4 711 6 1566 4 l1555 -2 100 -28z"/>
<path d="M665 4460 c44 -44 82 -80 85 -80 2 0 -31 36 -75 80 -44 44 -82 80
-85 80 -2 0 31 -36 75 -80z"/>
<path d="M1060 4055 c156 -156 286 -282 289 -279 7 6 -551 564 -564 564 -5 0
118 -128 275 -285z"/>
<path d="M1362 3768 c-9 -9 -12 -108 -12 -399 l0 -388 22 -15 c20 -14 150 -16
1199 -16 1109 0 1178 1 1199 18 21 17 21 21 18 262 -3 231 -5 249 -27 305 -33
83 -133 183 -216 216 l-60 24 -1055 3 c-819 2 -1058 0 -1068 -10z"/>
<path d="M2560 2558 l385 -388 -776 0 c-727 0 -778 -1 -799 -18 -21 -17 -21
-21 -18 -267 3 -236 5 -253 27 -310 43 -107 163 -207 283 -235 27 -6 429 -10
1070 -10 920 0 1028 2 1042 16 14 13 16 64 16 404 l0 389 -22 15 c-19 14 -76
16 -418 16 l-395 0 -390 388 -390 387 385 -387z"/>
<path d="M4155 950 c209 -209 381 -380 382 -380 2 0 3 3 3 7 0 11 -743 753
-755 753 -5 0 161 -171 370 -380z"/>
</g>
</svg>
