<svg width="128" height="128" version="1.1" xmlns="http://www.w3.org/2000/svg" xmlns:osb="http://www.openswatchbook.org/uri/2009/osb" xmlns:xlink="http://www.w3.org/1999/xlink"><title>F-Chat v3 by deviantart.com/Abagor</title><defs><pattern id="pattern2391" patternTransform="matrix(0,2,-24,0,0,0)" xlink:href="#Strips1_1"/><pattern id="Strips1_1" width="2" height="1" patternTransform="translate(0) scale(10)" patternUnits="userSpaceOnUse"><rect y="-.5" width="1" height="2"/></pattern></defs><linearGradient id="_1" x1="60" x2="60" y1="121" y2="7" gradientUnits="userSpaceOnUse"><stop stop-color="#44638d" offset="0"/><stop stop-color="#27374f" offset="1"/></linearGradient><path d="m16 16s0-8 8-8h96c8 0 8 8 8 8v104s0 8-8 8h-96c-8 0-8-8-8-8z" opacity=".141"/><path d="m8 16s0-8 8-8h96c8 0 8 8 8 8v96s0 8-8 8h-96c-8 0-8-8-8-8z" fill="url(#_1)"/><path d="m88 16s0-8 8-8h16c8 0 8 8 8 8v88s0 8-8 8h-16c-8 0-8-8-8-8z" fill="#273850" opacity=".5"/><g><path d="m20 108v-4h92v4s0 4-4 4h-84c-4 0-4-4-4-4z" fill="#fff"/><path d="m24 108v-4h88v4s0 4-4 4h-80c-4 0-4-4-4-4z" fill="url(#pattern2391)" opacity=".15"/></g><linearGradient id="_2" x1="60" x2="60" y1="105" y2="7" gradientUnits="userSpaceOnUse"><stop stop-color="#44638d" offset="0"/><stop stop-color="#27374f" offset="1"/></linearGradient><linearGradient id="_3" x1="60" x2="60" y1="15" y2="97" gradientUnits="userSpaceOnUse"><stop stop-color="#4e72a1" offset="0"/><stop stop-color="#7a95b9" offset="1"/></linearGradient><path id="Shape 1 copy" d="m8 8s0-8 8-8h96c8 0 8 8 8 8v88s0 8-8 8h-96c-8 0-8-8-8-8z" fill="url(#_2)"/><path d="m16 12s0-4 4-4h88c4 0 4 4 4 4v80s0 4-4 4h-88c-4 0-4-4-4-4z" fill="url(#_3)"/><g><path id="Shape 6 copy" d="m56 40h32v8h-24v16h16v8h-16v24h-8v-56z" display="none" fill="#27374f" opacity=".50196"/><path d="m56 68v-4-4-16s0-4-4-4h4 28c4 0 4-4 4-4v16s0-4-4-4h-20v16h12c4 0 4-4 4-4v16s0-4-4-4h-12v20s0 4 4 4h-16c4 0 4-4 4-4v-24z" display="none" fill="#27374f" opacity=".50196"/><path d="m48 60v-4-8-8s0-8-8-8h20 12c8 0 12-4 12-4l-4 20s0-8-8-8h-16v4.0547 11.945h4c8 0 12-4 12-4l-4 20s0-8-8-8h-4v16s0 8 8 8h-24c8 0 8-8 8-8v-20z" display="none" fill="#ccd9e7"/><path d="m40 52v-4-8-8s0-8-8-8h20 28s8 0 8-8v24s0-8-8-8h-24v4.0547 19.945h16c8 0 8-8 8-8v24c0-8-8-8-8-8h-16v16s0 8 8 8h-32c8 0 8-8 8-8v-28z" display="none" fill="#ccd9e7"/></g><g stroke-linejoin="round" stroke-miterlimit="16" stroke-width="8"><path d="m52 56v-20s0-8-8-8h40c8 0 12-4 12-4l-4 20s0-8-8-8h-24v16h20c4 0 4-4 4-4v16s0-4-4-4h-20v16s0 8 8 8h-24c8 0 8-8 8-8z" fill="#273850" opacity=".15" stroke="#273850" style="paint-order:markers stroke fill"/><path d="m48 52v-20s0-8-8-8h40c8 0 12-4 12-4l-4 20s0-8-8-8h-24v16h20c4 0 4-4 4-4v16s0-4-4-4h-20v16s0 8 8 8h-24c8 0 8-8 8-8z" fill="#273850" stroke="#273850" style="paint-order:markers stroke fill"/><path d="m48 52v-20s0-8-8-8h40c8 0 12-4 12-4l-4 20s0-8-8-8h-24v16h20c4 0 4-4 4-4v16s0-4-4-4h-20v16s0 8 8 8h-24c8 0 8-8 8-8z" fill="#fdfefe" style="paint-order:markers stroke fill"/></g><path d="m24 104h24v16h-24z" opacity=".15"/><path d="m16 104h24v24l-12-8-12 8v-24z" fill="#cb0808"/><path d="m16 104h24v8h-24z" opacity=".15" style="paint-order:markers stroke fill"/></svg>
