<svg id="svg" version="1.1" xmlns="http://www.w3.org/2000/svg" xmlns:xlink="http://www.w3.org/1999/xlink" width="400" height="400" viewBox="0, 0, 400,400"><g id="svgg"><path id="path0" d="M234.500 6.705 C 218.765 8.245,217.000 8.829,217.000 12.500 C 217.000 15.794,218.954 16.921,225.928 17.650 C 235.771 18.679,235.088 13.728,234.773 81.811 C 234.468 147.847,235.077 143.134,226.746 143.975 C 221.054 144.549,217.966 148.364,220.853 151.255 C 223.179 153.584,268.626 153.568,269.873 151.238 C 271.753 147.724,269.090 144.574,263.712 143.953 C 256.335 143.100,255.556 141.739,255.163 129.026 L 254.826 118.119 259.754 113.059 C 266.724 105.904,267.368 106.269,280.000 124.520 C 281.375 126.507,284.102 130.240,286.059 132.816 C 292.164 140.851,291.972 144.000,285.378 144.000 C 279.936 144.000,276.388 148.416,279.651 151.128 C 282.256 153.292,329.156 153.722,330.920 151.597 C 333.519 148.465,330.954 144.753,325.313 143.483 C 319.708 142.221,317.383 140.639,311.370 134.000 C 303.801 125.642,283.000 96.007,283.000 93.581 C 283.000 91.023,299.818 75.000,302.503 75.000 C 302.882 75.000,304.386 74.154,305.846 73.120 C 307.306 72.087,311.138 70.654,314.363 69.936 C 322.532 68.118,324.964 65.068,321.750 60.673 C 319.834 58.052,272.291 58.589,270.613 61.250 C 268.851 64.046,271.045 66.246,276.913 67.568 C 284.331 69.239,285.873 70.976,283.212 74.665 C 278.243 81.553,258.112 100.000,255.566 100.000 C 255.255 100.000,254.993 79.862,254.985 55.250 C 254.970 9.160,254.694 5.731,250.975 5.378 C 250.164 5.301,242.750 5.898,234.500 6.705 M178.367 11.918 C 171.513 16.097,170.231 21.839,174.708 28.300 C 183.617 41.156,202.117 29.633,193.903 16.344 C 190.121 10.223,184.004 8.481,178.367 11.918 M358.667 11.615 C 348.839 16.942,352.762 32.430,364.269 33.727 C 368.363 34.188,369.125 33.912,372.637 30.694 C 382.846 21.336,370.881 4.996,358.667 11.615 M1.000 61.000 C -0.308 63.445,1.272 67.000,3.667 67.000 C 9.214 67.000,12.446 71.736,19.020 89.500 C 20.241 92.800,22.032 97.525,23.000 100.000 C 23.968 102.475,25.747 107.200,26.955 110.500 C 28.162 113.800,29.962 118.525,30.955 121.000 C 31.947 123.475,33.747 128.200,34.955 131.500 C 36.162 134.800,37.993 139.525,39.024 142.000 C 40.054 144.475,41.197 147.625,41.563 149.000 C 43.815 157.446,52.747 157.983,54.548 149.782 C 54.936 148.013,55.635 145.876,56.101 145.033 C 56.566 144.190,58.366 139.675,60.101 135.000 C 61.835 130.325,64.933 122.225,66.985 117.000 C 69.037 111.775,70.999 106.319,71.345 104.876 C 71.691 103.433,72.813 101.217,73.838 99.951 L 75.702 97.650 78.710 104.075 C 80.364 107.609,82.710 113.200,83.923 116.500 C 85.136 119.800,87.000 124.425,88.064 126.777 C 89.129 129.129,90.015 131.604,90.034 132.277 C 90.053 132.950,90.937 135.300,92.000 137.500 C 93.063 139.700,93.947 141.894,93.966 142.375 C 94.334 151.869,108.000 160.994,108.000 151.746 C 108.000 151.227,108.614 149.384,109.364 147.651 C 110.115 145.918,111.976 141.125,113.499 137.000 C 115.023 132.875,117.752 125.675,119.564 121.000 C 122.662 113.008,123.805 110.019,130.459 92.500 C 137.285 74.529,139.399 70.906,144.227 68.906 C 150.056 66.491,151.166 64.166,148.000 61.000 C 145.242 58.242,115.222 57.921,112.521 60.621 C 109.926 63.216,111.158 65.311,116.432 67.269 C 124.500 70.264,125.856 75.877,121.077 86.500 C 120.087 88.700,118.722 92.075,118.042 94.000 C 117.363 95.925,115.701 100.425,114.349 104.000 C 112.997 107.575,111.436 112.075,110.879 114.000 C 108.996 120.516,103.000 122.726,103.000 116.904 C 103.000 115.886,102.149 113.129,101.110 110.777 C 100.070 108.425,98.236 103.800,97.035 100.500 C 95.833 97.200,94.014 92.475,92.992 90.000 C 91.971 87.525,90.092 82.427,88.817 78.672 L 86.500 71.843 88.861 69.922 C 90.159 68.865,92.432 68.000,93.911 68.000 C 98.441 68.000,100.823 63.223,97.800 60.200 C 95.801 58.201,57.606 58.537,55.571 60.571 C 52.561 63.582,53.998 66.124,59.446 67.430 C 66.717 69.173,70.779 77.145,67.984 84.184 C 67.042 86.558,65.276 91.200,64.060 94.500 C 62.844 97.800,61.010 102.525,59.983 105.000 C 58.956 107.475,57.626 111.075,57.026 113.000 C 55.036 119.386,50.000 123.240,50.000 118.376 C 50.000 117.548,49.158 114.762,48.129 112.185 C 42.278 97.532,37.996 86.262,37.966 85.439 C 37.947 84.923,37.063 82.700,36.000 80.500 C 32.676 73.618,34.085 68.000,39.137 68.000 C 44.639 68.000,46.876 63.427,42.777 60.557 C 38.972 57.891,2.456 58.279,1.000 61.000 M182.500 60.038 C 179.200 60.448,172.370 60.832,167.321 60.891 C 157.643 61.006,155.000 62.102,155.000 66.000 C 155.000 69.461,157.771 71.000,164.003 71.000 C 174.083 71.000,174.000 70.696,174.000 107.470 C 174.000 143.690,173.938 143.953,165.321 143.985 C 158.706 144.009,155.760 148.318,160.223 151.443 C 163.580 153.795,207.124 153.760,209.079 151.405 C 211.588 148.382,208.293 144.600,202.577 143.939 C 193.724 142.915,194.000 144.250,194.000 102.454 C 194.000 64.061,193.303 58.029,189.000 59.162 C 188.725 59.235,185.800 59.629,182.500 60.038 M348.996 60.948 C 336.939 61.671,336.000 62.042,336.000 66.084 C 336.000 69.585,338.711 71.000,345.419 71.000 C 348.586 71.000,350.400 71.642,352.354 73.452 L 355.000 75.905 355.000 107.498 L 355.000 139.091 352.545 141.545 C 350.693 143.398,349.026 144.000,345.745 144.000 C 340.866 144.000,339.000 145.307,339.000 148.725 C 339.000 152.442,342.508 153.000,365.874 153.000 C 390.190 153.000,392.460 152.500,390.244 147.637 C 389.085 145.092,388.210 144.713,380.705 143.504 C 375.092 142.600,375.000 141.914,375.000 101.157 C 375.000 54.492,378.050 59.208,348.996 60.948 M115.543 209.931 C 114.860 211.036,116.437 212.230,117.361 211.306 C 118.311 210.355,118.134 209.000,117.059 209.000 C 116.541 209.000,115.859 209.419,115.543 209.931 M132.000 210.417 C 132.000 211.287,132.713 212.000,133.583 212.000 C 135.349 212.000,135.042 209.847,133.188 209.229 C 132.534 209.011,132.000 209.546,132.000 210.417 M299.345 211.543 C 298.415 213.967,299.713 214.405,300.954 212.086 C 301.728 210.639,301.743 210.000,301.004 210.000 C 300.417 210.000,299.671 210.694,299.345 211.543 M320.197 218.411 C 320.364 221.497,320.950 224.018,321.500 224.012 C 323.040 223.994,322.753 213.751,321.197 213.232 C 320.207 212.902,319.967 214.146,320.197 218.411 M299.517 228.196 C 298.541 233.208,299.396 235.227,301.026 231.759 C 301.959 229.771,302.028 228.396,301.275 226.759 C 300.296 224.628,300.196 224.709,299.517 228.196 M115.683 226.650 C 115.308 227.026,115.000 228.421,115.000 229.750 C 115.000 232.518,117.300 232.365,117.844 229.561 C 118.227 227.585,116.745 225.588,115.683 226.650 M132.276 227.124 C 130.896 228.504,131.858 232.000,133.617 232.000 C 134.417 232.000,135.000 230.971,135.000 229.559 C 135.000 226.724,133.773 225.627,132.276 227.124 M397.607 229.582 C 396.529 232.392,396.911 355.827,398.000 356.500 C 398.663 356.910,399.000 335.344,399.000 292.559 C 399.000 257.052,398.823 228.000,398.607 228.000 C 398.391 228.000,397.941 228.712,397.607 229.582 M383.500 233.738 C 379.650 235.672,374.700 238.043,372.500 239.008 C 370.300 239.972,366.350 241.715,363.723 242.881 C 361.096 244.046,357.721 245.006,356.223 245.014 C 348.975 245.050,346.873 247.319,352.618 248.905 C 361.996 251.494,363.615 264.099,355.129 268.449 C 350.072 271.041,345.486 269.854,343.179 265.358 L 341.357 261.806 339.669 264.382 C 335.633 270.542,326.633 271.543,323.295 266.203 C 322.366 264.716,321.493 263.336,321.355 263.136 C 321.217 262.935,319.799 264.058,318.203 265.630 L 315.302 268.490 317.288 271.176 C 320.403 275.389,320.225 284.567,316.982 287.014 L 314.526 288.866 316.629 291.183 C 320.797 295.776,320.623 305.303,316.335 307.257 L 313.954 308.342 316.410 310.921 C 320.809 315.539,320.438 325.153,315.750 328.011 C 305.251 334.413,295.514 322.890,302.599 312.449 C 304.794 309.214,304.975 308.454,303.763 307.559 C 299.520 304.430,299.029 299.256,302.353 292.691 C 304.628 288.197,304.645 287.989,302.872 286.385 C 299.879 283.676,299.555 278.906,301.980 273.268 L 304.132 268.266 302.123 264.961 L 300.113 261.657 298.942 264.229 C 296.685 269.182,283.181 271.671,282.968 267.172 C 282.797 263.550,279.985 262.864,277.484 265.836 C 272.996 271.170,264.354 270.742,260.773 265.009 C 259.645 263.201,259.453 263.185,257.724 264.749 C 256.280 266.056,254.264 266.359,248.441 266.142 C 244.349 265.989,240.095 266.153,238.986 266.504 C 235.459 267.624,237.931 269.000,243.470 269.000 C 253.074 269.000,258.099 280.118,251.331 286.394 L 248.662 288.868 251.331 292.368 C 255.243 297.496,255.147 304.435,251.133 306.739 L 248.266 308.384 251.179 312.406 C 255.382 318.207,254.941 324.465,250.102 327.717 C 239.563 334.799,229.262 323.261,236.544 312.530 L 239.181 308.645 237.074 307.056 C 232.916 303.919,232.453 298.478,235.894 293.188 L 238.924 288.530 236.533 286.015 C 232.927 282.221,232.417 278.679,234.899 274.663 C 238.650 268.594,235.292 265.210,228.649 268.362 C 224.601 270.283,224.568 270.286,219.900 268.989 C 217.820 268.411,215.844 267.042,215.218 265.745 C 214.623 264.510,214.105 264.051,214.068 264.725 C 213.998 265.978,206.157 270.004,203.805 269.994 C 198.972 269.974,194.999 267.817,194.978 265.203 L 194.956 262.500 193.228 264.642 C 189.275 269.543,184.048 270.820,177.500 268.487 C 172.338 266.647,168.891 269.060,171.015 273.028 C 173.180 277.073,172.572 285.060,169.949 287.039 L 167.666 288.760 169.833 291.515 C 173.022 295.569,172.970 305.425,169.750 307.100 C 168.512 307.744,167.360 308.387,167.189 308.529 C 167.019 308.672,168.031 309.940,169.439 311.348 C 173.126 315.035,173.230 325.148,169.606 327.523 C 157.774 335.275,147.140 321.342,156.769 310.703 C 158.350 308.955,158.321 308.749,156.276 307.173 C 151.970 303.857,151.575 300.275,154.799 293.771 C 156.921 289.490,157.371 287.738,156.483 287.214 C 152.671 284.968,151.701 279.908,154.100 274.786 C 156.728 269.175,156.074 268.043,150.192 268.015 C 148.372 268.007,143.706 267.507,139.823 266.905 C 130.455 265.451,128.677 266.771,132.470 272.360 C 135.872 277.374,135.847 282.507,132.401 286.103 L 129.803 288.816 132.401 292.640 C 136.485 298.649,134.929 308.000,129.845 308.000 C 129.418 308.000,130.402 309.978,132.034 312.395 C 136.422 318.897,136.223 324.346,131.495 327.136 L 127.989 329.204 130.359 331.068 C 133.437 333.489,135.226 337.913,134.822 342.099 C 133.849 352.179,115.027 352.212,114.985 342.135 C 114.961 336.522,113.762 335.270,110.473 337.426 C 108.441 338.757,106.716 339.034,103.483 338.550 L 99.192 337.906 98.495 342.029 C 97.280 349.221,89.258 352.177,82.421 347.951 L 79.105 345.902 74.608 347.951 C 68.937 350.534,66.373 350.525,62.078 347.906 L 58.655 345.820 53.820 348.084 C 46.054 351.722,39.343 348.800,37.493 340.975 C 35.687 333.337,48.744 327.507,55.592 332.893 C 58.257 334.990,60.475 334.810,61.391 332.423 C 62.329 329.979,72.462 330.547,76.154 333.250 L 79.226 335.500 80.735 333.250 C 82.032 331.316,83.125 331.000,88.515 331.000 C 94.907 331.000,96.000 330.317,96.000 326.323 C 96.000 320.324,107.291 316.030,111.075 320.590 C 112.548 322.365,115.000 320.217,115.000 317.153 C 115.000 316.348,116.198 314.119,117.661 312.200 L 120.323 308.710 117.661 306.772 C 113.800 303.959,113.795 295.867,117.652 291.841 C 122.367 286.920,115.914 283.562,110.273 288.000 C 104.239 292.746,94.000 287.475,94.000 279.622 C 94.000 271.424,105.598 266.455,111.591 272.086 C 114.103 274.445,117.075 273.598,119.018 269.967 C 120.397 267.390,114.350 263.531,108.787 263.438 C 106.603 263.402,104.174 262.577,102.890 261.438 C 101.278 260.007,100.590 259.836,100.258 260.787 C 97.492 268.707,87.788 272.019,82.016 267.013 C 79.401 264.746,77.209 265.046,72.852 268.267 C 69.618 270.658,64.262 270.052,61.482 266.980 C 59.158 264.412,58.361 264.478,53.832 267.617 C 44.971 273.757,32.533 262.949,39.000 254.727 C 42.760 249.947,41.722 248.572,31.672 245.017 C 21.395 241.381,17.743 239.905,10.362 236.403 C 6.234 234.444,2.214 233.088,1.428 233.389 C -0.894 234.280,-0.686 356.773,1.646 361.282 C 2.551 363.032,3.256 365.710,3.212 367.232 C 3.163 368.969,3.829 370.373,4.999 371.000 C 6.025 371.549,7.143 372.875,7.483 373.948 C 7.824 375.020,8.956 376.169,10.000 376.500 C 11.044 376.831,12.161 377.931,12.482 378.943 C 12.803 379.956,13.951 381.016,15.033 381.298 C 16.239 381.614,17.000 382.666,17.000 384.018 C 17.000 385.961,17.386 386.152,20.250 385.628 C 24.797 384.796,27.202 386.383,24.495 388.429 C 22.050 390.277,-3.500 390.039,193.706 390.000 C 362.373 389.967,362.915 389.973,363.991 391.983 C 365.401 394.617,369.935 394.626,373.273 392.000 C 374.671 390.900,376.771 390.000,377.939 390.000 C 379.107 390.000,380.335 389.291,380.668 388.423 C 381.001 387.556,382.336 386.442,383.636 385.948 C 384.936 385.454,386.000 384.363,386.000 383.525 C 386.000 382.686,386.686 382.000,387.525 382.000 C 388.363 382.000,389.454 380.936,389.948 379.636 C 390.442 378.336,391.556 377.001,392.423 376.668 C 393.291 376.335,394.000 375.130,394.000 373.991 C 394.000 372.851,394.958 370.623,396.129 369.040 C 398.444 365.908,398.114 361.000,395.588 361.000 C 393.102 361.000,393.000 358.395,393.000 295.041 C 393.000 223.125,393.840 228.544,383.500 233.738 M320.197 238.411 C 320.364 241.497,320.950 244.018,321.500 244.012 C 323.040 243.994,322.753 233.751,321.197 233.232 C 320.207 232.902,319.967 234.146,320.197 238.411 M132.276 247.124 C 130.896 248.504,131.858 252.000,133.617 252.000 C 134.417 252.000,135.000 250.971,135.000 249.559 C 135.000 246.724,133.773 245.627,132.276 247.124 M115.000 249.500 C 115.000 252.448,116.515 252.775,117.930 250.131 C 119.011 248.111,118.445 247.000,116.333 247.000 C 115.578 247.000,115.000 248.083,115.000 249.500 M298.961 248.547 C 298.025 249.674,297.924 250.881,298.602 252.810 C 299.815 256.258,301.329 255.938,302.120 252.066 C 302.885 248.325,300.942 246.160,298.961 248.547 M317.998 251.597 C 319.290 253.744,320.482 255.675,320.646 255.889 C 320.810 256.102,321.423 255.017,322.009 253.476 C 323.230 250.266,322.661 249.429,318.574 248.418 L 315.648 247.695 317.998 251.597 M278.465 250.057 C 277.601 251.455,278.775 256.000,280.000 256.000 C 280.529 256.000,281.238 254.901,281.575 253.557 C 282.213 251.014,281.517 249.000,280.000 249.000 C 279.515 249.000,278.824 249.476,278.465 250.057 M338.518 249.971 C 338.188 250.504,338.684 252.417,339.620 254.221 L 341.322 257.500 342.256 254.717 C 343.705 250.395,340.652 246.518,338.518 249.971 M55.245 251.250 C 55.878 253.173,60.000 253.450,60.000 251.570 C 60.000 250.549,59.097 250.000,57.417 250.000 C 55.797 250.000,54.987 250.466,55.245 251.250 M76.000 251.570 C 76.000 252.612,76.729 253.032,78.172 252.820 C 81.373 252.348,81.716 250.000,78.583 250.000 C 76.903 250.000,76.000 250.549,76.000 251.570 M192.046 252.549 C 194.223 254.866,194.499 254.934,195.095 253.299 C 196.003 250.805,195.312 250.000,192.267 250.000 L 189.651 250.000 192.046 252.549 M211.000 250.878 C 211.000 252.323,213.834 254.221,214.956 253.527 C 216.979 252.277,216.039 250.000,213.500 250.000 C 212.125 250.000,211.000 250.395,211.000 250.878 M258.667 251.667 C 257.697 252.637,257.850 255.000,258.883 255.000 C 259.369 255.000,260.002 254.100,260.290 253.000 C 260.804 251.034,259.978 250.356,258.667 251.667 M235.000 259.000 C 235.000 261.491,235.395 262.874,236.000 262.500 C 236.550 262.160,237.000 260.585,237.000 259.000 C 237.000 257.415,236.550 255.840,236.000 255.500 C 235.395 255.126,235.000 256.509,235.000 259.000 M160.861 267.107 C 159.936 267.693,160.540 267.974,162.750 267.985 C 164.537 267.993,166.000 267.827,166.000 267.617 C 166.000 266.707,162.102 266.321,160.861 267.107 M35.491 271.990 C 38.687 275.522,38.738 283.412,35.583 286.335 L 32.924 288.800 35.462 292.539 C 39.666 298.734,38.422 306.279,32.875 308.235 C 31.871 308.589,32.224 309.402,34.184 311.251 C 41.977 318.601,36.955 330.894,26.672 329.637 C 17.090 328.466,14.647 318.871,21.845 310.673 C 23.329 308.983,23.287 308.722,21.276 307.173 C 16.489 303.487,16.274 298.465,20.627 292.039 L 22.971 288.579 20.557 286.039 C 13.907 279.045,18.025 270.000,27.859 270.000 C 32.410 270.000,34.085 270.437,35.491 271.990 M115.465 328.057 C 115.106 328.638,115.106 330.288,115.467 331.723 L 116.122 334.333 118.811 331.636 C 121.084 329.356,121.268 328.791,120.000 327.984 C 118.020 326.725,116.271 326.753,115.465 328.057 M191.558 333.657 C 194.230 336.540,194.186 336.544,195.900 333.250 C 197.546 330.085,208.700 329.906,211.500 333.000 C 212.495 334.100,213.885 335.000,214.588 335.000 C 215.290 335.000,216.151 334.100,216.500 333.000 C 217.046 331.280,218.013 331.000,223.412 331.000 C 232.133 331.000,233.800 333.149,233.183 343.598 C 232.829 349.594,220.019 352.206,216.737 346.950 C 215.529 345.017,213.000 344.248,213.000 345.815 C 213.000 349.946,200.788 350.942,196.968 347.122 C 194.308 344.462,193.975 344.370,192.585 345.906 C 183.549 355.891,167.215 344.934,174.947 334.075 C 178.048 329.719,187.684 329.477,191.558 333.657 M334.592 333.500 C 335.493 334.875,336.639 336.000,337.140 336.000 C 337.640 336.000,338.477 334.875,339.000 333.500 C 339.873 331.205,340.458 331.000,346.147 331.000 C 354.473 331.000,356.000 332.421,356.000 340.170 C 356.000 349.689,346.270 353.712,339.854 346.844 C 336.928 343.712,336.896 343.704,335.450 345.768 C 327.949 356.476,311.005 345.332,317.937 334.250 C 320.742 329.768,331.820 329.269,334.592 333.500 M392.213 367.000 C 392.518 369.077,392.236 370.000,391.295 370.000 C 389.636 370.000,388.579 367.540,389.362 365.500 C 390.306 363.038,391.743 363.794,392.213 367.000 M388.000 374.000 C 388.000 375.111,387.333 376.000,386.500 376.000 C 384.978 376.000,384.449 373.885,385.667 372.667 C 386.934 371.399,388.000 372.008,388.000 374.000 M384.000 378.500 C 384.000 379.325,383.325 380.000,382.500 380.000 C 381.675 380.000,381.000 379.325,381.000 378.500 C 381.000 377.675,381.675 377.000,382.500 377.000 C 383.325 377.000,384.000 377.675,384.000 378.500 M380.000 382.500 C 380.000 383.333,379.111 384.000,378.000 384.000 C 376.008 384.000,375.399 382.934,376.667 381.667 C 377.885 380.449,380.000 380.978,380.000 382.500 M372.750 386.750 C 373.012 387.535,372.205 388.000,370.583 388.000 C 368.059 388.000,367.295 387.038,368.701 385.632 C 369.730 384.603,372.269 385.304,372.750 386.750 M43.508 393.988 C 43.107 394.636,96.805 394.982,199.949 394.994 C 304.624 395.006,357.000 394.677,357.000 394.006 C 357.000 392.627,44.360 392.608,43.508 393.988 " stroke="none" fill="#000000" fill-rule="evenodd"></path></g></svg>